<?xml version="1.0" standalone="no"?>
<!DOCTYPE svg PUBLIC "-//W3C//DTD SVG 20010904//EN"
 "http://www.w3.org/TR/2001/REC-SVG-20010904/DTD/svg10.dtd">
<svg version="1.0" xmlns="http://www.w3.org/2000/svg"
 width="16.000000pt" height="16.000000pt" viewBox="0 0 16.000000 16.000000"
 preserveAspectRatio="xMidYMid meet">
<metadata>
Created by potrace 1.11, written by Peter Selinger 2001-2013
</metadata>
<g transform="translate(0.000000,16.000000) scale(0.003125,-0.003125)"
fill="#000000" stroke="none">
<path d="M3750 3842 l0 -662 310 0 310 0 0 -165 0 -165 -310 0 -310 0 0 -675
0 -675 -185 0 -185 0 0 1048 0 1047 -440 440 -440 440 0 -153 0 -152 -660 0
c-363 0 -660 -3 -660 -7 0 -4 53 -61 117 -125 l118 -118 792 0 793 0 0 -155 0
-155 -1160 0 c-638 0 -1160 -3 -1160 -8 0 -4 94 -101 209 -216 l208 -208 75
50 c94 63 214 113 348 143 92 21 130 24 315 24 185 0 223 -3 315 -24 317 -71
518 -231 601 -476 20 -59 24 -90 24 -195 0 -105 -4 -136 -24 -195 -82 -242
-282 -403 -593 -477 -82 -19 -120 -22 -323 -22 -202 0 -241 3 -322 22 -106 25
-232 73 -285 108 -21 13 -41 24 -45 24 -4 0 114 -121 262 -270 148 -148 276
-270 282 -270 10 0 13 -67 13 -305 l0 -305 1055 0 1055 0 0 -165 0 -165 -1247
0 -1248 0 340 -340 340 -340 1542 0 1543 0 0 1568 0 1567 -685 685 -685 685 0
-663z"/>
<path d="M1623 3091 c-304 -75 -443 -314 -324 -556 38 -77 90 -124 186 -170
102 -48 191 -65 350 -65 159 0 248 17 350 65 97 47 148 93 187 173 31 62 33
74 33 167 0 91 -3 105 -30 158 -54 108 -185 196 -342 231 -100 22 -314 20
-410 -3z"/>
</g>
</svg>
